<svg width="77" height="77" viewBox="0 0 77 77" fill="none" xmlns="http://www.w3.org/2000/svg">
<path d="M38.2952 76.2914C59.2188 76.2914 76.1808 59.4211 76.1808 38.6105C76.1808 17.8 59.2188 0.929688 38.2952 0.929688C17.3715 0.929688 0.409546 17.8 0.409546 38.6105C0.409546 59.4211 17.3715 76.2914 38.2952 76.2914Z" fill="white"/>
<mask id="mask0_75_627" style="mask-type:luminance" maskUnits="userSpaceOnUse" x="0" y="0" width="77" height="77">
<path d="M0 38.5C0 17.2727 17.2698 0 38.5 0C59.7273 0 77 17.2698 77 38.5C77 59.7273 59.7302 77 38.5 77C17.2727 77 0 59.7302 0 38.5ZM2.41858 38.5C2.41858 58.3946 18.6054 74.5814 38.5 74.5814C58.3946 74.5814 74.5814 58.3946 74.5814 38.5C74.5814 18.6054 58.3946 2.4186 38.5 2.4186C18.6054 2.4186 2.41858 18.6054 2.41858 38.5Z" fill="white"/>
</mask>
<g mask="url(#mask0_75_627)">
<mask id="mask1_75_627" style="mask-type:luminance" maskUnits="userSpaceOnUse" x="-119" y="-116" width="309" height="309">
<path d="M-118.964 192.869L189.771 192.869L189.771 -115.866L-118.964 -115.866L-118.964 192.869Z" fill="white"/>
</mask>
<g mask="url(#mask1_75_627)">
<path d="M155.121 -60.6883C153.654 -55.9934 151.854 -51.1679 149.738 -46.2291C132.285 -45.5758 105.242 -20.7308 89.7897 2.75247C88.2712 1.6143 86.5639 0.580673 84.6447 -0.325211C63.3623 -10.3654 58.1738 -42.9307 25.5214 -42.9307C24.4674 -42.9307 23.3699 -42.8988 22.2346 -42.8378C29.8679 -55.105 31.9061 -66.3124 23.8751 -72.7494C6.67786 -86.5292 -0.229499 -102.565 -8.61182 -114.321C-8.0921 -114.844 -7.55494 -115.361 -7.00619 -115.872C8.88741 -130.662 37.2833 -140.513 69.6686 -140.513C82.6907 -140.513 95.0682 -138.919 106.247 -136.051C106.125 -134.378 106.055 -132.694 106.055 -130.999C106.055 -100.55 125.923 -74.0966 155.115 -60.6912L155.121 -60.6883Z" fill="#C48CBD"/>
<path d="M-25.2283 25.3851C-1.18472 27.1388 23.3467 30.2165 31.851 43.4012C39.8471 55.7961 48.8072 61.7482 57.5234 63.2667C58.2232 81.5411 65.7606 108.32 27.2722 121.96C10.3014 127.973 9.09067 143.774 16.7297 159.659C15.2257 161.433 13.6811 163.268 12.0987 165.161C8.13252 165.748 4.10251 166.221 0.0347443 166.598C5.29293 152.505 1.82328 138.011 -14.6104 129.794C-62.7731 105.713 -10.2319 45.8168 -61.3853 45.8168C-67.2009 45.8168 -72.8888 46.2814 -78.4054 47.1641C-69.4685 30.5794 -49.6262 26.3752 -25.2313 25.3851H-25.2283Z" fill="#F26F55"/>
<path d="M64.7328 33.869C62.8862 36.7754 63.2695 40.9361 65.0609 45.9358C58.2319 48.8422 57.2157 55.2327 57.5235 63.2666C48.8073 61.7481 39.8501 55.796 31.851 43.4011C23.3439 30.2164 -1.18465 27.1388 -25.2283 25.3851C-53.5429 23.3207 -81.184 23.0971 -81.184 10.3712C-81.184 7.40388 -80.0051 4.33781 -77.8798 1.24272C-75.1651 9.11403 -69.6223 14.108 -59.3789 14.108C-35.5095 14.108 6.01015 -16.7588 22.2376 -42.8378C23.3729 -42.8987 24.4704 -42.9307 25.5244 -42.9307C58.1768 -42.9307 63.3653 -10.3653 84.6477 -0.325146C86.5669 0.580734 88.2771 1.61146 89.7927 2.75253C99.3103 9.89506 101.16 21.2709 98.1256 32.2692C82.9347 27.0807 69.689 26.0645 64.7328 33.8661V33.869Z" fill="#F29C4E"/>
<path d="M23.8781 -72.7464C31.9091 -66.3094 29.8738 -55.102 22.2376 -42.8349C6.01015 -16.7559 -35.5095 14.1109 -59.3789 14.1109C-69.6252 14.1109 -75.168 9.11691 -77.8798 1.24561C-84.4649 -17.8476 -74.4014 -53.8768 -74.4014 -76.6574C-74.4014 -97.635 -74.5524 -114.359 -64.9274 -123.456C-59.7941 -128.31 -51.8792 -130.993 -39.6672 -130.993C-24.5285 -130.993 -16.5063 -124.864 -9.74117 -115.866C-9.35792 -115.358 -8.98045 -114.841 -8.60591 -114.315C-0.223587 -102.562 6.68377 -86.5263 23.881 -72.7435L23.8781 -72.7464Z" fill="#71C2AA"/>
<path d="M27.2752 121.96C65.7636 108.32 58.2262 81.541 57.5264 63.2666C57.2187 55.2327 58.2349 48.8422 65.0638 45.9358C74.053 71.0305 118.537 117.355 95.1989 133.487C89.4588 137.453 84.8945 141.3 81.4191 144.982C69.2448 147.339 57.0125 151.004 45.1112 156.25C37.1528 159.758 28.3291 162.246 19.0409 163.997C18.2018 162.554 17.4324 161.105 16.7356 159.656C9.09653 143.771 10.3073 127.973 27.2781 121.957L27.2752 121.96Z" fill="#F8C07E"/>
<path d="M95.196 133.487C118.537 117.355 74.0501 71.0305 65.0609 45.9358C63.2695 40.9331 62.8862 36.7753 64.7328 33.869C69.689 26.0673 82.9347 27.0836 98.1256 32.2721C119.245 39.4872 144.122 54.7652 155.71 65.63C131.873 69.1694 101.006 80.6497 117.837 90.266C132.479 98.6338 152.661 132.453 171.363 149.16C146.93 141.797 114.382 138.597 81.4162 144.982C84.8916 141.3 89.4559 137.453 95.196 133.487Z" fill="#4CA7D4"/>
<path d="M-69.2564 111.156C-69.2564 86.3057 -87.2522 65.3339 -111.882 58.6995C-109.684 57.4684 -107.423 56.3128 -105.1 55.2415C-96.8655 51.4408 -87.8851 48.6825 -78.3966 47.1669C-72.8771 46.2843 -67.1892 45.8197 -61.3764 45.8197C-10.2231 45.8197 -62.7643 105.715 -14.6015 129.797C1.83211 138.014 5.29884 152.505 0.0435638 166.601C-53.1219 171.517 -112.271 160.103 -112.271 178.793C-112.271 187.076 -103.877 194.826 -89.2788 201.449C-96.9149 199.375 -104.118 196.475 -110.759 192.872C-113.601 191.327 -116.339 189.655 -118.964 187.863C-128.391 181.418 -136.321 173.427 -142.241 164.336C-137.842 165.297 -133.252 165.808 -128.534 165.808C-95.7971 165.808 -69.2564 141.344 -69.2564 111.162V111.156Z" fill="#C48CBD"/>
</g>
</g>
<path d="M36.7234 33.8487L30.6087 27.734C28.042 25.1673 28.042 21.0037 30.6087 18.4342C33.1754 15.8675 37.339 15.8675 39.9085 18.4342L52.7128 31.2384C56.7225 35.2481 56.7225 41.7461 52.7128 45.7558L39.9085 58.5601C37.3419 61.1268 33.1783 61.1268 30.6087 58.5601C28.042 55.9934 28.042 51.8299 30.6087 49.2603L36.7234 43.1456C39.2901 40.5789 39.2901 36.4153 36.7234 33.8458V33.8487Z" fill="#F26F55"/>
<path d="M30.6085 58.563C33.1751 61.1296 37.3387 61.1296 39.9083 58.563L41.2003 57.2709C46.4324 52.0389 46.4324 43.5578 41.2003 38.3258L36.7232 33.8486C39.2898 36.4153 39.2898 40.5789 36.7232 43.1484L30.6085 49.2631C28.0418 51.8298 28.0418 55.9934 30.6085 58.563Z" fill="#FFA256"/>
<path d="M30.4922 39.5454L29.116 40.9216C28.5382 41.4994 28.5382 42.4372 29.116 43.015C29.6938 43.5928 30.6316 43.5928 31.2094 43.015L34.0925 40.1318C34.9955 39.2289 34.9955 37.7655 34.0925 36.8654L31.2094 33.9823C30.6316 33.4045 29.6938 33.4045 29.116 33.9823C28.5382 34.5601 28.5382 35.4979 29.116 36.0757L30.4922 37.4519C31.07 38.0297 31.07 38.9676 30.4922 39.5454Z" fill="#F26F55"/>
<path d="M29.116 33.9823C29.6938 33.4045 30.6316 33.4045 31.2094 33.9823L31.4997 34.2726C32.6785 35.4514 32.6785 37.359 31.4997 38.5378L30.4922 39.5454C31.07 38.9676 31.07 38.0297 30.4922 37.4519L29.116 36.0757C28.5382 35.4979 28.5382 34.5601 29.116 33.9823Z" fill="#FFA256"/>
</svg>
