<svg width="191" height="84" viewBox="0 0 191 84" fill="none" xmlns="http://www.w3.org/2000/svg">
<path fill-rule="evenodd" clip-rule="evenodd" d="M14.3138 54.0999C14.7151 54.0999 15.083 54.1642 15.4174 54.3248C15.7519 54.4532 16.0529 54.678 16.3204 54.9029C16.588 55.1598 16.7886 55.4488 16.9559 55.77C17.0896 56.0911 17.19 56.4765 17.19 56.8619C17.19 57.2473 17.1231 57.6006 16.9559 57.9218C16.8221 58.2429 16.588 58.532 16.3204 58.7889C16.0529 59.0458 15.7519 59.2385 15.4174 59.367C15.083 59.5275 14.7151 59.5918 14.3138 59.5918H11.1701V73.4338C11.1701 73.8192 11.1032 74.2046 10.936 74.5578C10.7688 74.9111 10.5681 75.2323 10.3006 75.5213C10.033 75.8104 9.69861 76.0352 9.29729 76.1957C8.89597 76.3563 8.49465 76.4527 8.05988 76.4527C7.59167 76.4527 7.19035 76.3563 6.78903 76.1957C6.42115 76.0352 6.08672 75.8104 5.78572 75.5213C5.51818 75.2323 5.28407 74.9111 5.1503 74.5578C5.01653 74.2046 4.9162 73.8192 4.9162 73.4338V59.5918H2.87614C2.47482 59.5918 2.10694 59.5275 1.73906 59.367C1.40463 59.2385 1.10364 59.0137 0.836089 58.7889C0.601984 58.532 0.401325 58.2429 0.234107 57.9218C0.100333 57.6006 0 57.2473 0 56.8619C0 56.4765 0.0668896 56.1233 0.234107 55.77C0.367881 55.4488 0.568541 55.1598 0.836089 54.9029C1.07019 54.6459 1.37118 54.4532 1.73906 54.3248C2.0735 54.1963 2.47482 54.0999 2.87614 54.0999H4.92294C4.96117 52.5676 5.16275 51.1178 5.55162 49.7964C5.95294 48.3191 6.58837 47.0344 7.42446 45.9746C8.26055 44.9148 9.26385 44.0798 10.5013 43.4696C11.7387 42.8594 13.1767 42.5703 14.8155 42.5703C15.2502 42.5703 15.685 42.6346 16.0529 42.7951C16.4208 42.9557 16.7552 43.1484 17.0562 43.4374C17.3237 43.6944 17.5578 44.0155 17.7251 44.4009C17.8254 44.7221 17.9257 45.1396 17.9257 45.5571C17.9257 46.1673 17.7585 46.7133 17.4241 47.195C17.0896 47.6768 16.6214 47.9979 16.0863 48.2227C15.4174 48.3512 14.8155 48.5439 14.2135 48.7366C13.6449 48.9293 13.1099 49.2183 12.6751 49.6037C12.2403 49.9891 11.8724 50.4709 11.6049 51.0811C11.3373 51.6913 11.2036 52.4299 11.1701 53.3613V54.0999H14.3138Z" fill="#332E6A"/>
<path fill-rule="evenodd" clip-rule="evenodd" d="M27.3568 75.425C28.9286 76.0994 30.6342 76.4206 32.4402 76.4206C33.4769 76.4206 34.5137 76.3243 35.6173 76.0994C36.7209 75.8746 37.7242 75.5856 38.5938 75.2002C39.4633 74.8148 40.1991 74.3652 40.7676 73.8192C41.3361 73.2732 41.6037 72.6952 41.6037 72.0207C41.6037 71.4426 41.4365 70.9609 41.102 70.5755C40.7676 70.1901 40.3663 69.9011 39.8981 69.7405C39.4299 69.5799 38.9282 69.4835 38.4266 69.5157C37.8915 69.5157 37.4567 69.6441 37.0888 69.8368C36.4534 70.3828 35.7511 70.7682 34.9484 71.0572C34.1458 71.3463 33.3097 71.4747 32.4736 71.4747C31.5706 71.4747 30.7346 71.3142 29.9654 70.993C29.1962 70.6718 28.4938 70.2543 27.8919 69.7084C27.2899 69.1624 26.7882 68.5522 26.4203 67.8456C26.0525 67.1391 25.8184 66.4004 25.7515 65.6296H42.4732C43.6103 65.6296 44.3795 65.5012 44.8477 65.2121C45.3159 64.9231 45.55 64.345 45.55 63.51C45.55 61.7757 45.2156 60.1699 44.5467 58.6605C43.8778 57.151 42.9749 55.8664 41.8043 54.7744C40.6338 53.6825 39.2626 52.8475 37.6908 52.2373C36.119 51.6271 34.4468 51.3059 32.6408 51.3059C30.8349 51.3059 29.1293 51.595 27.524 52.2373C25.9187 52.8475 24.4806 53.7146 23.2767 54.8387C22.0727 55.9627 21.1028 57.2795 20.4005 58.8211C19.6982 60.3305 19.3303 62.0326 19.3303 63.8632C19.3303 65.5975 19.6648 67.2033 20.3671 68.7449C21.0359 70.2543 21.9724 71.6032 23.1763 72.7273C24.3803 73.8834 25.7849 74.7506 27.3568 75.425ZM30.1326 56.6051C30.9352 56.3481 31.7713 56.1875 32.6408 56.1875C33.5104 56.1875 34.313 56.316 35.0822 56.6051C35.8514 56.8941 36.5203 57.2795 37.1223 57.7934C37.7242 58.3072 38.2259 58.9174 38.5938 59.5918C38.9617 60.2663 39.1958 61.0371 39.2626 61.84H25.718C25.8184 61.0371 26.0859 60.2663 26.4872 59.5918C26.8886 58.8853 27.3902 58.3072 28.0256 57.7934C28.6276 57.2795 29.3299 56.8941 30.1326 56.6051Z" fill="#332E6A"/>
<path fill-rule="evenodd" clip-rule="evenodd" d="M50.1652 46.4885C50.1652 46.071 50.2321 45.6856 50.3993 45.3323C50.5665 44.979 50.7672 44.6579 51.0682 44.3688C51.3357 44.1119 51.6702 43.8871 52.0715 43.7265C52.4394 43.5659 52.8741 43.5017 53.3089 43.5017C53.7437 43.5017 54.145 43.5659 54.5129 43.7265C54.8808 43.8871 55.2152 44.0798 55.5162 44.3688C55.7837 44.6258 56.0178 44.9469 56.1851 45.3323C56.3523 45.6856 56.4526 46.071 56.4526 46.4885V73.4017C56.4526 73.8192 56.3523 74.2367 56.1851 74.59C56.0178 74.9433 55.7837 75.2644 55.5162 75.5535C55.2486 75.8104 54.9142 76.0352 54.5129 76.1958C54.145 76.3563 53.7437 76.4206 53.3089 76.4206C52.8741 76.4206 52.4728 76.3563 52.0715 76.1958C51.7036 76.0352 51.3692 75.8425 51.0682 75.5535C50.8007 75.2965 50.5665 74.9754 50.3993 74.59C50.2321 74.2367 50.1652 73.8192 50.1652 73.4017V46.4885Z" fill="#332E6A"/>
<path fill-rule="evenodd" clip-rule="evenodd" d="M62.3052 43.5017C62.1045 43.8871 62.0377 44.3046 62.0377 44.7542C62.0377 45.2038 62.138 45.6213 62.3052 46.0067C62.4724 46.3921 62.7065 46.7133 63.0075 47.0023C63.3085 47.2914 63.6764 47.5162 64.0777 47.6768C64.5125 47.8694 64.9472 47.9337 65.4154 47.9337C65.8837 47.9337 66.3184 47.8373 66.7198 47.6768C67.1211 47.5162 67.4889 47.2914 67.7899 47.0023C68.0909 46.7133 68.3585 46.3921 68.5257 46.0067C68.6929 45.6213 68.7932 45.2038 68.7932 44.7542C68.7932 44.3046 68.6929 43.8871 68.5257 43.5017C68.3585 43.1163 68.0909 42.7951 67.7899 42.5061C67.4889 42.217 67.1211 41.9922 66.7198 41.8316C66.3184 41.6711 65.8837 41.5747 65.4154 41.5747C64.9138 41.5747 64.479 41.6711 64.0777 41.8316C63.6764 41.9922 63.3085 42.217 63.0075 42.5061C62.7065 42.763 62.4724 43.1163 62.3052 43.5017ZM62.6062 53.0722C62.439 53.4255 62.3721 53.8109 62.3721 54.2284V73.4016C62.3721 73.8192 62.439 74.2367 62.6062 74.5899C62.74 74.9753 62.9741 75.2965 63.2416 75.5534C63.5092 75.8424 63.8436 76.0351 64.2115 76.1957C64.5794 76.3563 65.0141 76.4205 65.4489 76.4205C65.8837 76.4205 66.285 76.3563 66.6529 76.1957C67.0542 76.0351 67.3886 75.8103 67.6562 75.5534C67.9237 75.2644 68.1578 74.9432 68.325 74.5899C68.4922 74.2045 68.5926 73.8192 68.5926 73.4016V54.2284C68.5926 53.8109 68.4922 53.4255 68.325 53.0722C68.1578 52.6868 67.9237 52.3657 67.6562 52.1087C67.3552 51.8197 67.0207 51.627 66.6529 51.4664C66.285 51.3058 65.8837 51.2416 65.4489 51.2416C65.0141 51.2416 64.5794 51.3058 64.2115 51.4664C63.8436 51.627 63.5092 51.8518 63.2416 52.1087C62.9741 52.3978 62.7734 52.7189 62.6062 53.0722Z" fill="#332E6A"/>
<path fill-rule="evenodd" clip-rule="evenodd" d="M95.5815 54.7745C96.2503 55.4811 96.5847 56.1876 96.5847 56.9263C96.5847 57.3438 96.4844 57.7292 96.3172 58.0825C96.15 58.4358 95.9159 58.7569 95.6149 59.0138C95.3139 59.2708 94.946 59.4314 94.5447 59.5598C94.1434 59.6562 93.7086 59.6883 93.2738 59.5919C92.3709 59.1744 91.4679 58.7569 90.5315 58.3394C89.6285 57.9219 88.6252 57.6329 87.555 57.4402C86.5517 57.3117 85.5484 57.3759 84.5785 57.6329C83.6087 57.8577 82.7392 58.2752 81.9699 58.8212C81.2007 59.3671 80.5988 60.1058 80.1306 60.9408C79.6623 61.808 79.4282 62.7714 79.4282 63.8955C79.4282 64.9874 79.6289 65.9509 80.0637 66.818C80.4984 67.6852 81.1004 68.3917 81.8362 68.9698C82.5719 69.5479 83.4415 69.9654 84.4113 70.1902C85.3812 70.4472 86.4179 70.5114 87.5216 70.3829C88.3577 70.2866 89.1937 70.0939 89.9964 69.7727C90.799 69.4515 91.5013 69.0019 92.1368 68.4881C92.5381 68.2954 93.0063 68.1669 93.5079 68.1027C94.0096 68.0384 94.4778 68.1348 94.946 68.2954C95.4477 68.4881 95.849 68.8092 96.15 69.2588C96.451 69.7085 96.5847 70.2223 96.5847 70.8325C96.5847 71.507 96.3172 72.1814 95.7487 72.8558C95.2136 73.5303 94.4444 74.1405 93.5079 74.6864C92.5715 75.2324 91.4679 75.6499 90.197 76.0032C88.9262 76.3565 87.5885 76.5171 86.1838 76.5171C84.3779 76.5171 82.6723 76.1959 81.1004 75.5215C79.5286 74.847 78.1239 73.9478 76.9534 72.8237C75.7829 71.6997 74.8465 70.3508 74.1442 68.8092C73.4419 67.2677 73.1074 65.6619 73.1074 63.9276C73.1074 62.1933 73.4419 60.5554 74.1442 59.046C74.8465 57.5365 75.7829 56.1876 76.9534 55.0636C78.1239 53.9395 79.5286 53.0403 81.1004 52.3658C82.6723 51.6914 84.3779 51.3702 86.1838 51.3702C87.0534 51.3702 87.9563 51.4345 88.8259 51.5951C89.6954 51.7556 90.5649 51.9804 91.401 52.2695C92.2371 52.5585 92.9728 52.9118 93.7086 53.3614C94.4778 53.7147 95.0798 54.2286 95.5815 54.7745Z" fill="#332E6A"/>
<path fill-rule="evenodd" clip-rule="evenodd" d="M101.2 43.5017C101.033 43.8871 100.932 44.3046 100.932 44.7542C100.932 45.2038 101.033 45.6213 101.2 46.0067C101.367 46.3921 101.601 46.7133 101.902 47.0023C102.203 47.2914 102.571 47.5162 102.972 47.6768C103.374 47.8694 103.842 47.9337 104.31 47.9337C104.778 47.9337 105.213 47.8373 105.615 47.6768C106.016 47.5162 106.384 47.2914 106.685 47.0023C106.986 46.7133 107.253 46.3921 107.42 46.0067C107.588 45.6213 107.688 45.2038 107.688 44.7542C107.688 44.3046 107.588 43.8871 107.42 43.5017C107.253 43.1163 106.986 42.7951 106.685 42.5061C106.384 42.217 106.016 41.9922 105.615 41.8316C105.213 41.6711 104.778 41.5747 104.31 41.5747C103.809 41.5747 103.374 41.6711 102.972 41.8316C102.571 41.9922 102.203 42.217 101.902 42.5061C101.601 42.763 101.367 43.1163 101.2 43.5017ZM101.501 53.0722C101.334 53.4255 101.267 53.8109 101.267 54.2284V73.4016C101.267 73.8192 101.334 74.2367 101.501 74.5899C101.635 74.9753 101.869 75.2965 102.136 75.5534C102.404 75.8424 102.738 76.0351 103.106 76.1957C103.508 76.3563 103.909 76.4205 104.344 76.4205C104.778 76.4205 105.18 76.3563 105.548 76.1957C105.949 76.0351 106.283 75.8103 106.551 75.5534C106.818 75.2644 107.053 74.9432 107.22 74.5899C107.387 74.2045 107.487 73.8192 107.487 73.4016V54.2284C107.487 53.8109 107.387 53.4255 107.22 53.0722C107.053 52.6868 106.818 52.3657 106.551 52.1087C106.25 51.8197 105.916 51.627 105.548 51.4664C105.18 51.3058 104.778 51.2416 104.344 51.2416C103.909 51.2416 103.474 51.3058 103.106 51.4664C102.738 51.627 102.404 51.8518 102.136 52.1087C101.869 52.3978 101.668 52.7189 101.501 53.0722Z" fill="#332E6A"/>
<path fill-rule="evenodd" clip-rule="evenodd" d="M125.748 51.7555C126.182 51.7555 126.584 51.8197 126.951 51.9803C127.319 52.1088 127.654 52.3336 127.921 52.5905C128.189 52.8474 128.423 53.1686 128.557 53.5219C128.724 53.8752 128.791 54.2606 128.791 54.6781C128.791 55.0956 128.724 55.4488 128.557 55.8021C128.39 56.1554 128.189 56.4444 127.921 56.7335C127.654 56.9904 127.319 57.2152 126.951 57.3758C126.584 57.5364 126.182 57.6006 125.748 57.6006H123.072V73.4017C123.072 73.8192 122.972 74.2367 122.804 74.59C122.637 74.9433 122.403 75.2644 122.136 75.5535C121.868 75.8104 121.534 76.0352 121.132 76.1958C120.764 76.3563 120.363 76.4206 119.928 76.4206C119.494 76.4206 119.059 76.3563 118.691 76.1958C118.323 76.0352 117.989 75.8425 117.721 75.5535C117.454 75.2965 117.219 74.9754 117.086 74.59C116.918 74.2367 116.852 73.8192 116.852 73.4017V57.6006H114.343C113.909 57.6006 113.507 57.5364 113.139 57.3758C112.771 57.2152 112.437 57.0225 112.169 56.7335C111.902 56.4766 111.668 56.1554 111.534 55.8021C111.367 55.4488 111.3 55.0635 111.3 54.6781C111.3 54.2606 111.367 53.8752 111.534 53.5219C111.701 53.1686 111.902 52.8474 112.169 52.5905C112.437 52.3336 112.771 52.1088 113.139 51.9803C113.507 51.8518 113.909 51.7555 114.343 51.7555H116.852V46.4885C116.852 46.071 116.918 45.6856 117.086 45.3323C117.253 44.979 117.454 44.6579 117.721 44.3688C117.989 44.1119 118.323 43.8871 118.691 43.7265C119.059 43.5659 119.494 43.5017 119.928 43.5017C120.363 43.5017 120.764 43.5659 121.132 43.7265C121.5 43.8871 121.835 44.0798 122.136 44.3688C122.403 44.6258 122.637 44.9469 122.804 45.3323C122.972 45.6856 123.072 46.071 123.072 46.4885V51.7555H125.748Z" fill="#332E6A"/>
<path fill-rule="evenodd" clip-rule="evenodd" d="M141.533 82.8117C137.653 83.0365 134.075 80.8848 132.57 77.4484C131.901 75.9389 131.7 74.2689 132.001 72.631L137.62 31.2335C137.954 27.8613 140.028 25.0672 143.172 23.8147C144.108 23.4293 145.078 23.2045 146.048 23.1402C148.489 22.9797 150.864 23.8468 152.971 25.581L186.414 50.0855C188.019 51.2096 189.424 52.3015 190.293 54.2927C191.23 56.4445 191.23 58.8211 190.327 60.9729C189.524 62.8677 188.053 64.4093 186.18 65.3727V65.4049L144.075 82.2979C143.238 82.5869 142.402 82.7475 141.533 82.8117Z" fill="#FDCD0D"/>
<path fill-rule="evenodd" clip-rule="evenodd" d="M165.813 47.3235C167.418 47.3235 168.923 47.9016 170.094 49.0256L170.261 49.1862C170.595 48.9935 170.963 48.8329 171.331 48.6724C173.271 47.8052 175.445 47.3556 177.786 47.3556C178.956 47.3556 180.093 47.4841 181.197 47.6768L152.268 26.4802C149.76 24.3927 146.683 23.654 143.64 24.8744C140.764 26.0306 139.058 28.5356 138.79 31.394L136.617 47.5162C137.018 47.6125 137.386 47.7089 137.754 47.8695C138.59 48.1906 139.292 48.6724 139.928 49.2504C140.53 49.8285 140.998 50.503 141.366 51.2738C141.733 52.0767 141.934 52.9438 141.934 53.843V63.3815C141.934 63.8953 142.001 64.345 142.168 64.7625C142.335 65.18 142.536 65.5011 142.804 65.7902C143.071 66.0471 143.372 66.2719 143.707 66.4325C144.008 66.561 144.376 66.6252 144.777 66.6252C145.212 66.6252 145.579 66.5289 145.981 66.3683C146.449 66.1756 146.85 65.9186 147.218 65.5654C147.553 65.2442 147.82 64.8588 148.021 64.4413C148.188 64.088 148.288 63.7027 148.288 63.3173V53.8109C148.288 52.8796 148.489 52.0124 148.857 51.1774C149.191 50.4388 149.693 49.7643 150.262 49.1862C150.897 48.576 151.599 48.1264 152.435 47.8052C153.271 47.4841 154.141 47.2914 155.044 47.2914C155.98 47.2914 156.85 47.452 157.686 47.8052C158.522 48.1264 159.224 48.6081 159.86 49.1862C160.228 49.5395 160.562 49.9249 160.83 50.3424C161.632 48.5439 163.472 47.3235 165.813 47.3235Z" fill="#332E6A"/>
<path fill-rule="evenodd" clip-rule="evenodd" d="M143.071 78.9256C140.295 80.0496 137.118 78.765 135.948 76.0994C135.546 75.2001 135.446 74.1724 135.613 73.2089L141.031 33.0639L141.265 31.5224C141.566 29.4348 142.67 27.8291 144.61 27.0583C146.65 26.2554 148.589 26.6408 150.529 28.1823L184.541 53.0722C185.344 53.6824 186.481 54.5495 186.949 55.6415C188.086 58.275 186.815 61.3581 184.04 62.4822C184.073 62.4822 143.105 78.8934 143.071 78.9256Z" fill="#FAB51F"/>
<path fill-rule="evenodd" clip-rule="evenodd" d="M182.066 54.7102L144.576 27.0583L138.69 72.0528C138.556 72.7273 138.623 73.4338 138.924 74.1082C139.727 75.971 141.968 76.8381 143.907 76.0673C143.974 76.0352 144.008 76.0352 144.041 76.0031L181.063 61.1655C181.163 61.1334 181.264 61.1013 181.331 61.0692C183.27 60.2984 184.173 58.1466 183.371 56.2839C183.103 55.6416 182.635 55.0956 182.066 54.7102Z" fill="#FDCD0D"/>
<path fill-rule="evenodd" clip-rule="evenodd" d="M144.342 78.3797C142.135 79.1505 139.66 78.1227 138.757 76.0352C138.322 75.0717 138.322 74.0119 138.623 73.0806C138.59 72.7273 138.59 72.4061 138.657 72.0849L144.543 27.0905V27.0583C142.636 27.8291 141.499 29.467 141.198 31.5225L140.964 33.064L135.546 73.209C135.379 74.1725 135.48 75.1681 135.881 76.0994C137.051 78.7651 140.229 80.0176 143.004 78.9256C143.071 78.9256 143.539 78.7329 144.342 78.3797Z" fill="#FDE500"/>
<path fill-rule="evenodd" clip-rule="evenodd" d="M138.255 63.3816C138.255 64.3129 138.423 65.1801 138.757 66.0151C139.091 66.8501 139.526 67.5566 140.128 68.1668C140.697 68.777 141.399 69.2588 142.202 69.6121C143.004 69.9653 143.874 70.158 144.844 70.158C145.78 70.158 146.683 69.9653 147.553 69.6121C148.422 69.2267 149.191 68.7449 149.86 68.1026C150.529 67.4603 151.064 66.7537 151.432 65.9187C151.732 65.2957 151.901 64.6728 151.967 64.0231V53.8752C151.967 53.4577 152.034 53.0723 152.235 52.7191C152.402 52.3658 152.636 52.0446 152.904 51.7877C153.171 51.5308 153.506 51.306 153.907 51.1454C154.275 50.9848 154.676 50.9205 155.111 50.9205C155.546 50.9205 155.947 50.9848 156.348 51.1454C156.716 51.306 157.051 51.4987 157.352 51.7877C157.619 52.0446 157.853 52.3658 158.021 52.7191C158.188 53.0723 158.255 53.4577 158.255 53.8752V74.3652H158.221C158.221 75.4572 157.653 76.0031 156.516 76.0031C155.88 76.0031 155.312 75.7783 154.843 75.3608C154.342 74.9433 154.007 74.1725 153.773 73.0485L153.517 71.9997C153.093 72.4059 152.643 72.7876 152.168 73.1448C151.365 73.7229 150.529 74.2368 149.66 74.6543C148.757 75.0718 147.854 75.3929 146.884 75.6499C145.914 75.8747 144.978 76.0031 144.041 76.0031C142.235 76.0031 140.596 75.682 139.125 75.0075C137.653 74.3331 136.383 73.466 135.346 72.3098C134.309 71.1857 133.473 69.8369 132.904 68.3274C132.336 66.7859 132.035 65.1801 132.035 63.4458V53.8752C132.035 53.4898 132.102 53.1366 132.269 52.7512C132.403 52.3979 132.637 52.0767 132.904 51.7877C133.172 51.5308 133.506 51.3059 133.874 51.1132C134.242 50.9527 134.677 50.8563 135.112 50.8563C135.546 50.8563 135.948 50.9206 136.349 51.0811C136.717 51.2417 137.051 51.4344 137.352 51.7235C137.62 51.9804 137.854 52.3015 138.021 52.6869C138.189 53.0402 138.289 53.4256 138.289 53.8431V63.3816H138.255Z" fill="#332E6A"/>
<path fill-rule="evenodd" clip-rule="evenodd" d="M165.846 50.8563C164.709 50.8563 164.141 51.4023 164.141 52.4942H164.107V80.9811C164.107 81.8482 164.408 82.5548 165.01 83.1329C165.612 83.711 166.348 84 167.251 84C167.686 84 168.087 83.9358 168.455 83.7752C168.856 83.6146 169.191 83.3898 169.458 83.1329C169.726 82.8439 169.96 82.5227 170.127 82.1694C170.294 81.784 170.395 81.3986 170.395 80.9811V73.144C171.265 73.8737 172.223 74.4842 173.271 74.9754C174.709 75.6499 176.214 75.971 177.819 75.971C179.592 75.971 181.264 75.6499 182.802 74.9754C184.34 74.301 185.678 73.4017 186.782 72.2777C187.886 71.1536 188.755 69.8369 189.39 68.2953C190.026 66.7859 190.36 65.1479 190.36 63.4137C190.36 61.6794 190.026 60.0415 189.39 58.532C188.755 57.0226 187.886 55.6737 186.782 54.5497C185.645 53.4256 184.34 52.5264 182.802 51.8519C181.297 51.1775 179.625 50.8563 177.819 50.8563C176.013 50.8563 174.374 51.1775 172.903 51.8519C171.431 52.5264 170.16 53.4256 169.124 54.5497C169.053 54.6243 168.983 54.6998 168.914 54.7764L168.589 53.811C168.388 52.7512 168.054 51.9804 167.552 51.5308C167.084 51.0811 166.515 50.8563 165.846 50.8563ZM170.93 66.0472C170.595 65.2122 170.428 64.345 170.428 63.4137C170.428 62.4823 170.629 61.6152 170.93 60.8123C171.264 59.9773 171.766 59.2707 172.368 58.6605C173.003 58.0503 173.705 57.5686 174.542 57.2153C175.378 56.862 176.247 56.6693 177.217 56.6693C178.187 56.6693 179.056 56.862 179.892 57.2153C180.695 57.5686 181.431 58.0503 182.033 58.6605C182.635 59.2707 183.103 59.9773 183.471 60.8123C183.839 61.6152 184.006 62.4823 184.006 63.4137C184.006 64.345 183.839 65.2122 183.471 66.0472C183.137 66.8822 182.635 67.5888 182.033 68.199C181.431 68.8092 180.729 69.2909 179.892 69.6442C179.056 69.9975 178.153 70.1901 177.217 70.1901C176.281 70.1901 175.378 69.9975 174.542 69.6442C173.705 69.2909 172.97 68.8092 172.368 68.199C171.766 67.5888 171.264 66.8822 170.93 66.0472Z" fill="#332E6A"/>
<path fill-rule="evenodd" clip-rule="evenodd" d="M156.148 9.23401L157.653 5.28375C157.786 4.96259 157.485 4.6093 157.117 4.54507L153.94 3.99909C153.572 3.93486 153.171 4.15969 153.171 4.51297L153.138 8.72016C153.138 9.07343 153.305 9.39458 153.673 9.45881L155.378 9.74786C155.746 9.81209 156.014 9.58729 156.148 9.23401Z" fill="#86C061"/>
<path fill-rule="evenodd" clip-rule="evenodd" d="M171.197 4.96256L169.826 3.35676C169.659 3.16406 169.558 2.97137 169.592 2.74656L169.793 0.594774C169.859 0.177267 169.759 0.113034 169.358 0.241498L167.217 1.01228C166.983 1.10862 166.916 1.0444 166.716 0.94805L164.709 0.0809224C164.308 -0.0796575 164.208 -0.0154336 164.208 0.402074L164.341 2.48963C164.341 2.71444 164.375 2.77866 164.208 2.97136L162.703 4.60929C162.402 4.93045 162.435 5.02679 162.87 5.12314L165.044 5.70122C165.278 5.76545 165.411 5.92603 165.545 6.15084L166.615 7.91722C166.816 8.30261 166.95 8.2705 167.184 7.91722L168.321 6.21507C168.455 6.02237 168.689 5.86181 168.923 5.82969L170.997 5.41217C171.431 5.38005 171.465 5.31584 171.197 4.96256Z" fill="#FDCD0D"/>
<path fill-rule="evenodd" clip-rule="evenodd" d="M151.8 24.7782C154.041 18.1944 151.064 13.4733 149.158 10.6793C147.018 7.59612 142.402 10.069 144.743 13.3128C147.018 16.4601 148.355 18.9652 149.191 24.2001L151.8 24.7782Z" fill="#EE76A7"/>
<path fill-rule="evenodd" clip-rule="evenodd" d="M158.522 27.4116L166.348 14.7258C166.582 14.244 166.381 13.6981 165.88 13.4733L161.967 11.7069C161.465 11.4821 160.897 11.6748 160.662 12.1565L155.412 25.9985L158.522 27.4116Z" fill="#FDCD0D"/>
<path fill-rule="evenodd" clip-rule="evenodd" d="M175.478 28.086C179.591 27.9576 178.923 22.9154 175.077 23.108C171.665 23.2686 165.98 23.7825 161.8 29.3064L164.007 30.9765C168.689 28.6641 171.565 28.2145 175.478 28.086Z" fill="#EE76A7"/>
<path fill-rule="evenodd" clip-rule="evenodd" d="M151.8 24.7781C154.041 18.1943 151.064 13.4733 149.158 10.6792C147.954 8.91283 145.947 8.97705 144.877 9.90841C145.646 10.0048 146.416 10.4544 146.984 11.2894C148.79 13.9229 151.566 18.2907 149.927 24.3606L151.8 24.7781Z" fill="#EB5993"/>
<path fill-rule="evenodd" clip-rule="evenodd" d="M158.522 27.4116L166.348 14.7258C166.582 14.2441 166.381 13.6981 165.88 13.4733L165.177 13.1521L156.85 26.6408L158.522 27.4116Z" fill="#FAB51F"/>
<path fill-rule="evenodd" clip-rule="evenodd" d="M175.478 28.0861C179.491 27.9577 178.956 23.2045 175.378 23.1082C175.812 24.3928 175.177 25.9023 173.003 26.2555C169.391 26.8336 166.682 27.5723 162.769 30.0773L164.007 31.0087C168.689 28.6642 171.565 28.2146 175.478 28.0861Z" fill="#EB5993"/>
<path fill-rule="evenodd" clip-rule="evenodd" d="M142.336 20.0892L139.894 15.0791C139.693 14.6616 139.091 14.5974 138.69 14.8543L135.212 17.1667C134.811 17.4236 134.644 18.0017 134.978 18.3228L138.991 22.2731C139.326 22.5943 139.794 22.7548 140.195 22.4979L142.068 21.2454C142.503 20.9885 142.536 20.5067 142.336 20.0892Z" fill="#86C061"/>
<path fill-rule="evenodd" clip-rule="evenodd" d="M137.051 6.66468L138.456 4.73772C138.757 4.35233 138.724 4.25598 138.222 4.19175L135.781 3.80637C135.513 3.77425 135.48 3.67789 135.312 3.48519L133.941 1.62246C133.674 1.23707 133.506 1.2692 133.306 1.68671L132.269 3.74212C132.169 3.96693 132.135 4.03117 131.868 4.12752L129.493 4.8983C129.025 5.05888 129.025 5.15524 129.359 5.4764L131.065 7.14643C131.232 7.33913 131.299 7.53181 131.299 7.82086V10.0369C131.299 10.4865 131.399 10.5507 131.834 10.3259L133.874 9.29819C134.075 9.20184 134.443 9.16973 134.677 9.23396L136.851 9.90839C137.319 10.0369 137.419 9.97264 137.319 9.52301L136.951 7.33913C136.918 7.0822 136.918 6.85738 137.051 6.66468Z" fill="#FDCD0D"/>
<path fill-rule="evenodd" clip-rule="evenodd" d="M177.016 15.2717L176.013 9.84415C175.946 9.39453 175.344 9.16972 174.909 9.3303L170.93 10.7113C170.495 10.8719 170.16 11.3857 170.395 11.7711L173.204 16.5885C173.438 16.9739 173.873 17.263 174.307 17.1024L176.481 16.3637C176.949 16.2031 177.117 15.7214 177.016 15.2717Z" fill="#86C061"/>
<path fill-rule="evenodd" clip-rule="evenodd" d="M188.287 22.7227L189.123 20.5389C189.29 20.1213 189.257 20.025 188.755 20.0571L186.28 20.314C186.013 20.3461 185.946 20.2819 185.745 20.1213L183.906 18.6761C183.538 18.3871 183.404 18.4192 183.304 18.8688L182.836 21.1169C182.769 21.3739 182.802 21.4381 182.568 21.5666L180.495 22.8833C180.093 23.1402 180.093 23.2366 180.528 23.4614L182.635 24.6497C182.869 24.7782 182.969 24.9708 183.036 25.2278L183.638 27.3796C183.739 27.8292 183.872 27.8613 184.24 27.5401L185.946 26.0628C186.113 25.9022 186.447 25.8059 186.682 25.8059L188.989 25.9343C189.457 25.9664 189.558 25.8701 189.324 25.4526L188.354 23.4293C188.253 23.1724 188.187 22.9475 188.287 22.7227Z" fill="#FDCE87"/>
<path fill-rule="evenodd" clip-rule="evenodd" d="M181.23 36.5968L176.113 35.2158C175.679 35.0873 175.244 35.2158 175.043 35.5691L174.14 37.3997C173.94 37.7851 174.174 38.1705 174.508 38.4274L178.856 41.3499C179.224 41.6069 179.725 41.3821 179.926 40.9967L181.598 37.6245C181.799 37.2391 181.665 36.6931 181.23 36.5968Z" fill="#86C061"/>
<path fill-rule="evenodd" clip-rule="evenodd" d="M162.87 28.0218C161.8 27.3153 160.629 26.6087 159.392 25.9664C158.857 25.6774 158.321 25.4204 157.753 25.1314H157.719C157.118 24.8745 156.549 24.6175 155.947 24.3927C154.71 23.911 153.439 23.4935 152.235 23.1723C151.566 22.9796 150.897 22.8191 150.262 22.7227C149.793 22.6264 149.325 22.5621 148.857 22.4979C145.646 22.1125 143.305 22.7227 143.205 24.9708C143.205 25.0029 143.205 25.4525 143.172 25.7416V49.668C143.172 51.049 143.64 51.9161 144.409 52.173C145.111 52.5584 146.081 52.3658 147.185 51.4986L151.666 47.9659L155.713 44.8185L160.83 40.804L164.375 38.042L166.482 36.4041C166.682 36.2114 167.05 35.9224 167.084 35.8902C168.756 34.4129 167.886 32.3575 165.646 30.3021C165.244 29.9167 164.809 29.5634 164.341 29.2101C163.907 28.7284 163.405 28.3751 162.87 28.0218Z" fill="#86C061"/>
<path fill-rule="evenodd" clip-rule="evenodd" d="M159.425 25.9665C158.89 25.6774 158.355 25.4205 157.786 25.1314H157.753C157.151 24.8745 156.582 24.6176 155.98 24.3928C155.947 24.3928 155.914 24.3607 155.88 24.3607C154.71 23.911 153.506 23.5256 152.369 23.2045C152.335 23.2045 152.302 23.1724 152.268 23.1724C151.599 22.9797 150.93 22.8191 150.295 22.7228C149.827 22.6264 149.359 22.5622 148.89 22.4979C147.586 22.3373 146.382 22.3374 145.479 22.5622C146.683 22.787 147.921 23.1081 149.091 23.4935C149.426 23.5899 149.76 23.7183 150.094 23.8147C150.529 23.9753 150.964 24.1358 151.365 24.2643C151.566 24.3285 151.733 24.3928 151.934 24.4891C152.335 24.6497 152.77 24.8103 153.171 25.003H153.205C154.977 25.838 156.75 26.8336 158.321 27.8934C159.258 28.5357 160.328 29.3386 161.097 30.0773C163.305 32.1648 164.208 34.2203 162.535 35.6976C162.535 35.6976 162.502 35.7297 162.468 35.7297C163.305 36.4684 164.007 37.2392 164.475 37.9457L166.582 36.3078C166.783 36.1151 167.151 35.8261 167.184 35.7939C168.856 34.3166 167.987 32.2612 165.746 30.2058L165.712 30.1737C165.345 29.8204 164.91 29.4671 164.442 29.1138C164.408 29.0817 164.375 29.0496 164.308 29.0175C163.84 28.6642 163.371 28.3431 162.937 28.0219C161.967 27.3475 160.897 26.7051 159.76 26.127C159.592 26.0628 159.492 25.9986 159.425 25.9665Z" fill="#5FB130"/>
<path fill-rule="evenodd" clip-rule="evenodd" d="M164.408 37.9778C162.903 35.6334 159.024 32.9999 154.843 31.0087C150.596 29.1781 146.014 27.9577 143.172 28.343V32.7429C145.914 32.9677 149.392 33.9954 152.67 35.4407C155.914 36.9822 158.957 38.9092 160.863 40.7719L164.408 37.9778Z" fill="#B7CD00"/>
<path fill-rule="evenodd" clip-rule="evenodd" d="M155.746 44.7542L160.863 40.7397C160.194 40.0974 159.425 39.4551 158.556 38.8127L153.138 43.0521C154.074 43.598 154.944 44.1761 155.746 44.7542Z" fill="#5FB130"/>
<path fill-rule="evenodd" clip-rule="evenodd" d="M164.408 37.9778C163.94 37.2392 163.271 36.5005 162.402 35.7618C162.301 35.8582 162.034 36.0509 161.867 36.2115L158.556 38.8129C159.425 39.4552 160.228 40.0975 160.863 40.7398L164.408 37.9778Z" fill="#99AC06"/>
<path fill-rule="evenodd" clip-rule="evenodd" d="M155.746 44.7543C154.041 43.5018 151.934 42.3135 149.793 41.2858C147.586 40.3224 145.312 39.5516 143.205 39.0698V44.0799C144.643 44.5295 146.148 45.0755 147.619 45.7178C149.058 46.3923 150.462 47.1631 151.733 47.966L155.746 44.7543Z" fill="#B7CD00"/>
<path fill-rule="evenodd" clip-rule="evenodd" d="M155.746 44.7543C154.944 44.1762 154.074 43.5981 153.138 43.0521L148.957 46.328C149.927 46.8418 150.864 47.3557 151.733 47.9016L155.746 44.7543Z" fill="#99AC06"/>
<path fill-rule="evenodd" clip-rule="evenodd" d="M137.051 6.66468L138.456 4.73772C138.757 4.35233 138.724 4.25598 138.222 4.19175L135.781 3.80637C135.513 3.77425 135.48 3.67789 135.312 3.48519L133.941 1.62246C133.674 1.23707 133.506 1.2692 133.306 1.68671L132.838 2.58596C133.473 3.38886 133.975 4.32021 134.376 5.34793C134.878 6.72891 135.078 8.0778 135.011 9.36244L136.851 9.94051C137.319 10.069 137.419 10.0047 137.319 9.55511L136.951 7.37123C136.918 7.08219 136.918 6.85738 137.051 6.66468Z" fill="#FAB51F"/>
<path fill-rule="evenodd" clip-rule="evenodd" d="M142.335 20.0892L139.894 15.0791C139.693 14.6616 139.091 14.5974 138.69 14.8543L137.887 15.4003C138.188 15.9141 138.456 16.4601 138.657 17.0703C139.359 18.933 139.459 20.8279 139.091 22.4016C139.426 22.6585 139.827 22.7548 140.195 22.53L142.068 21.2775C142.503 20.9885 142.536 20.5067 142.335 20.0892Z" fill="#5FB130"/>
<path fill-rule="evenodd" clip-rule="evenodd" d="M157.653 5.28366C157.786 4.9625 157.485 4.60922 157.117 4.54499L153.94 3.99901C153.74 3.96689 153.539 3.99902 153.405 4.12748C154.074 4.9625 154.643 5.92598 155.044 7.05004C155.378 7.94929 155.579 8.88065 155.646 9.7799C155.88 9.71567 156.047 9.52296 156.114 9.29815L157.653 5.28366Z" fill="#5FB130"/>
<path fill-rule="evenodd" clip-rule="evenodd" d="M169.826 3.38885C169.659 3.19616 169.559 3.00346 169.592 2.77865L169.793 0.626894C169.86 0.209386 169.759 0.145154 169.358 0.273617L167.217 1.0444C166.983 1.14074 166.916 1.07652 166.716 0.98017L165.612 0.498419C165.947 1.07651 166.248 1.68671 166.515 2.32903C167.284 4.41656 167.351 6.50412 166.816 8.20627C166.916 8.30262 167.05 8.20625 167.217 7.98144L168.355 6.27931C168.488 6.08662 168.722 5.92603 168.957 5.89391L171.03 5.47641C171.465 5.38006 171.498 5.28372 171.231 4.96256L169.826 3.38885Z" fill="#FAB51F"/>
<path fill-rule="evenodd" clip-rule="evenodd" d="M177.016 15.2717L176.013 9.84415C175.946 9.39453 175.344 9.16972 174.909 9.3303L173.17 9.9405C173.304 10.2617 173.471 10.5828 173.572 10.904C174.408 13.12 174.408 15.3681 173.772 17.1024C173.94 17.1666 174.14 17.1666 174.341 17.1024L176.515 16.3637C176.95 16.2031 177.117 15.7214 177.016 15.2717Z" fill="#5FB130"/>
<path fill-rule="evenodd" clip-rule="evenodd" d="M179.926 40.9967L181.598 37.6245C181.799 37.2391 181.632 36.7252 181.23 36.5968L176.347 35.28C176.883 36.0187 177.317 36.8537 177.685 37.753C178.087 38.8449 178.287 39.9369 178.321 40.9646L178.889 41.3499C179.224 41.6069 179.759 41.3821 179.926 40.9967Z" fill="#5FB130"/>
<path fill-rule="evenodd" clip-rule="evenodd" d="M188.287 22.7227L189.123 20.5389C189.29 20.1213 189.257 20.025 188.755 20.0571L186.28 20.314C186.013 20.3461 185.946 20.2819 185.745 20.1213L183.906 18.6761C183.538 18.3871 183.404 18.4192 183.304 18.8688L183.17 19.5754C183.906 20.4425 184.508 21.4702 184.943 22.6585C185.411 23.911 185.611 25.1957 185.578 26.3839L185.912 26.0949C186.08 25.9343 186.414 25.838 186.648 25.838L188.956 25.9664C189.424 25.9986 189.524 25.9022 189.29 25.4847L188.32 23.4614C188.253 23.1723 188.187 22.9475 188.287 22.7227Z" fill="#FDCD0D"/>
</svg>
